<svg xmlns="http://www.w3.org/2000/svg" width="256" height="256" viewBox="0 0 256 256">
  <defs>
    <filter id="roughTarget">
      <feTurbulence type="fractalNoise" baseFrequency="0.028" numOctaves="2" seed="23"/>
      <feDisplacementMap in="SourceGraphic" scale="4"/>
    </filter>
  </defs>
  <ellipse cx="128" cy="218" rx="78" ry="16" fill="#2a1a12" opacity=".2"/>
  <g filter="url(#roughTarget)">
    <rect x="54" y="62" width="148" height="128" rx="22" fill="#f2d79f" stroke="#23140d" stroke-width="8"/>
    <path d="M70 82c30-17 78-23 116-3M72 168c37 18 78 19 116 0" fill="none" stroke="#9e6b38" stroke-width="5" stroke-linecap="round" opacity=".45"/>
    <path d="M70 194c18 19 40 29 66 29 25 0 47-10 66-29" fill="none" stroke="#23140d" stroke-width="7" stroke-linecap="round"/>
    <path d="M85 54c14-23 39-35 70-32 19 2 35 9 48 22" fill="none" stroke="#23140d" stroke-width="8" stroke-linecap="round"/>
    <path d="M82 37c20 13 42 17 66 13M165 35c-13 14-18 30-14 47" fill="none" stroke="#b1352d" stroke-width="7" stroke-linecap="round"/>
  </g>
  <text x="128" y="144" text-anchor="middle" font-family="serif" font-size="64" font-weight="900" fill="#2a1a12" stroke="#fff0bf" stroke-width="2">阿斗</text>
  <path d="M33 103c-11 8-18 20-20 37M222 102c12 13 17 28 14 45" fill="none" stroke="#2a1a12" stroke-width="5" stroke-linecap="round" opacity=".65"/>
  <text x="128" y="42" text-anchor="middle" font-family="serif" font-size="22" font-weight="900" fill="#b1352d">蜀中护驾中</text>
</svg>
