<svg xmlns="http://www.w3.org/2000/svg" width="512" height="512" viewBox="0 0 512 512">
  <defs>
    <filter id="wobble">
      <feTurbulence type="fractalNoise" baseFrequency="0.03" numOctaves="2" seed="7"/>
      <feDisplacementMap in="SourceGraphic" scale="3"/>
    </filter>
  </defs>
  <rect width="512" height="512" fill="#f0dfbd"/>
  <g filter="url(#wobble)" stroke="#23160f" stroke-width="8" stroke-linejoin="round">
    <rect x="28" y="28" width="190" height="190" rx="18" fill="#dfc492"/>
    <rect x="294" y="28" width="190" height="190" rx="18" fill="#a78364"/>
    <rect x="28" y="294" width="190" height="190" rx="18" fill="#9ea666"/>
    <rect x="294" y="294" width="190" height="190" rx="18" fill="#71655b"/>
  </g>
  <g fill="none" stroke-linecap="round">
    <path d="M62 82c36-15 72-18 111-9M58 145c49 17 88 15 127-6" stroke="#8f6b3f" stroke-width="7" opacity=".45"/>
    <path d="M330 86c36 21 73 22 116 2M334 145c31-8 69-8 114 1" stroke="#5e4534" stroke-width="8" opacity=".5"/>
    <path d="M64 342c39 26 76 27 114 0M74 414c28-22 65-28 112-18" stroke="#557a45" stroke-width="9" opacity=".6"/>
    <path d="M338 350l98 78M432 348l-100 82" stroke="#3c3431" stroke-width="10" opacity=".52"/>
  </g>
  <g font-family="serif" font-weight="900" font-size="34" fill="#2a1a12" opacity=".7">
    <text x="92" y="134">地</text>
    <text x="357" y="134">路</text>
    <text x="92" y="400">荒</text>
    <text x="357" y="400">封</text>
  </g>
</svg>
